<svg xmlns="http://www.w3.org/2000/svg" viewBox="0 0 21 12" width="21" height="12">
	<style>
		tspan { white-space:pre }
		.shp0 { fill: #000000 } 
	</style>
	<g id="Symbols">
		<g id="Bars/Navigation-Bar/iPhone---Compact/Light/Default">
			<g id="Bars/Navigation-Bar/x/Left/Back-Button">
				<path id="Tint-Color" fill-rule="evenodd" class="shp0" d="M0.07 1.44C0.07 0.66 0.68 0.05 1.45 0.05C1.84 0.05 2.19 0.2 2.46 0.47L10.47 8.67L18.46 0.47C18.73 0.2 19.1 0.05 19.47 0.05C20.25 0.05 20.86 0.66 20.86 1.44C20.86 1.82 20.71 2.14 20.46 2.4L11.55 11.52C11.25 11.85 10.87 12.01 10.46 12.01C10.05 12.01 9.7 11.85 9.38 11.53L0.46 2.41C0.21 2.14 0.07 1.82 0.07 1.44Z" />
			</g>
		</g>
	</g>
</svg>